<svg width="20" height="20" viewBox="0 0 20 20" fill="none" xmlns="http://www.w3.org/2000/svg">
<path fill-rule="evenodd"  clip-rule="evenodd" d="M1.54474 1.72441C1.5 1.81464 1.5 1.93319 1.5 2.17029V10.544C1.5 10.7811 1.5 10.8996 1.54474 10.9899C1.58245 11.0659 1.64163 11.1279 1.71421 11.1674C1.80034 11.2143 1.9135 11.2143 2.1398 11.2143H2.13982H8.1459H8.14591C8.37222 11.2143 8.48537 11.2143 8.5715 11.1674C8.64409 11.1279 8.70327 11.0659 8.74097 10.9899C8.78571 10.8996 8.78571 10.7811 8.78571 10.544V10.544V2.17029V2.17028C8.78571 1.93319 8.78571 1.81464 8.74097 1.72441C8.70327 1.64837 8.64409 1.58637 8.5715 1.54687C8.48537 1.5 8.37221 1.5 8.1459 1.5H2.13982C1.9135 1.5 1.80034 1.5 1.71421 1.54687C1.64163 1.58637 1.58245 1.64837 1.54474 1.72441ZM1.54474 13.8392C1.5 13.9182 1.5 14.0219 1.5 14.2294V17.9135C1.5 18.121 1.5 18.2247 1.54474 18.3036C1.58245 18.3702 1.64163 18.4244 1.71421 18.459C1.80034 18.5 1.9135 18.5 2.13982 18.5H8.1459C8.37221 18.5 8.48537 18.5 8.5715 18.459C8.64409 18.4244 8.70327 18.3702 8.74097 18.3036C8.78572 18.2247 8.78571 18.121 8.78571 17.9135V14.2294C8.78571 14.0219 8.78572 13.9182 8.74097 13.8392C8.70327 13.7727 8.64409 13.7184 8.5715 13.6839C8.48537 13.6429 8.37221 13.6429 8.1459 13.6429H2.13982C1.9135 13.6429 1.80034 13.6429 1.71421 13.6839C1.64163 13.7184 1.58245 13.7727 1.54474 13.8392ZM11.2143 2.0865C11.2143 1.87904 11.2143 1.77531 11.259 1.69636C11.2967 1.62983 11.3559 1.57558 11.4285 1.54101C11.5146 1.5 11.6278 1.5 11.8541 1.5H17.8602C18.0865 1.5 18.1997 1.5 18.2858 1.54101C18.3584 1.57558 18.4176 1.62983 18.4553 1.69636C18.5 1.77531 18.5 1.87904 18.5 2.0865V5.77064C18.5 5.9781 18.5 6.08183 18.4553 6.16078C18.4176 6.22732 18.3584 6.28157 18.2858 6.31613C18.1997 6.35714 18.0865 6.35714 17.8602 6.35714H11.8541C11.6278 6.35714 11.5146 6.35714 11.4285 6.31613C11.3559 6.28157 11.2967 6.22732 11.259 6.16078C11.2143 6.08183 11.2143 5.9781 11.2143 5.77064V2.0865ZM11.259 9.01013C11.2143 9.10036 11.2143 9.21891 11.2143 9.456V17.8297C11.2143 18.0668 11.2143 18.1854 11.259 18.2756C11.2967 18.3516 11.3559 18.4136 11.4285 18.4531C11.5146 18.5 11.6278 18.5 11.8541 18.5H11.8541H17.8602H17.8602C18.0865 18.5 18.1997 18.5 18.2858 18.4531C18.3584 18.4136 18.4176 18.3516 18.4553 18.2756C18.5 18.1854 18.5 18.0668 18.5 17.8297V9.456C18.5 9.21891 18.5 9.10036 18.4553 9.01013C18.4176 8.93409 18.3584 8.87209 18.2858 8.83259C18.1997 8.78571 18.0865 8.78571 17.8602 8.78571H11.8541C11.6278 8.78571 11.5146 8.78571 11.4285 8.83259C11.3559 8.87209 11.2967 8.93409 11.259 9.01013Z" fill="currentColor"/>
</svg>
