<svg version="1.0" xmlns="http://www.w3.org/2000/svg" width="30" height="30" viewBox="0 0 60.000000 60.000000" preserveAspectRatio="xMidYMid meet">

<g transform="translate(0.000000,60.000000) scale(0.100000,-0.100000)" fill="currentColor" stroke="none">
<path d="M178 437 c-85 -72 -119 -117 -89 -117 6 0 53 36 107 80 53 44 100 80
105 80 4 0 50 -36 103 -80 52 -44 100 -80 105 -80 16 0 13 38 -3 47 -9 5 -16
28 -18 58 -3 46 -5 50 -28 50 -18 0 -26 -6 -28 -23 -3 -22 -6 -21 -57 22 -31
27 -63 46 -77 45 -14 0 -61 -32 -120 -82z"></path>
<path d="M203 369 l-93 -80 0 -74 c0 -65 3 -76 22 -89 23 -17 94 -21 115 -8 6
4 13 34 15 67 l3 60 35 0 35 0 3 -60 c2 -33 9 -63 15 -67 7 -4 31 -8 55 -8 64
0 82 23 82 110 l0 70 -91 77 c-50 43 -94 79 -98 80 -3 1 -48 -34 -98 -78z"></path>
</g>
</svg>