<svg width="20" height="20" viewBox="0 0 20 20" fill="none"  xmlns="http://www.w3.org/2000/svg">
<path d="M1 1.90563C1 1.58529 1 1.42512 1.06333 1.3032C1.1167 1.20047 1.20047 1.1167 1.3032 1.06333C1.42512 1 1.58529 1 1.90562 1H4.59437C4.91471 1 5.07488 1 5.1968 1.06333C5.29953 1.1167 5.3833 1.20047 5.43667 1.3032C5.5 1.42512 5.5 1.58529 5.5 1.90562V18.0944C5.5 18.4147 5.5 18.5749 5.43667 18.6968C5.3833 18.7995 5.29953 18.8833 5.1968 18.9367C5.07488 19 4.91471 19 4.59437 19H1.90563C1.58529 19 1.42512 19 1.3032 18.9367C1.20047 18.8833 1.1167 18.7995 1.06333 18.6968C1 18.5749 1 18.4147 1 18.0944V1.90563Z" fill="currentColor"/>
<path d="M7.75 7.24564C7.75 6.94666 7.75 6.79717 7.81333 6.68338C7.8667 6.58749 7.95047 6.50931 8.0532 6.4595C8.17512 6.40039 8.33529 6.40039 8.65562 6.40039H11.3444C11.6647 6.40039 11.8249 6.40039 11.9468 6.4595C12.0495 6.50931 12.1333 6.58749 12.1867 6.68338C12.25 6.79717 12.25 6.94666 12.25 7.24564V18.1551C12.25 18.4541 12.25 18.6036 12.1867 18.7174C12.1333 18.8133 12.0495 18.8915 11.9468 18.9413C11.8249 19.0004 11.6647 19.0004 11.3444 19.0004H8.65563C8.33529 19.0004 8.17512 19.0004 8.0532 18.9413C7.95047 18.8915 7.8667 18.8133 7.81333 18.7174C7.75 18.6036 7.75 18.4541 7.75 18.1551V7.24564Z" fill="currentColor"/>
<path d="M14.5 12.5243C14.5 12.268 14.5 12.1399 14.5633 12.0424C14.6167 11.9602 14.7005 11.8932 14.8032 11.8505C14.9251 11.7998 15.0853 11.7998 15.4056 11.7998H18.0944C18.4147 11.7998 18.5749 11.7998 18.6968 11.8505C18.7995 11.8932 18.8833 11.9602 18.9367 12.0424C19 12.1399 19 12.268 19 12.5243V18.2753C19 18.5316 19 18.6597 18.9367 18.7572C18.8833 18.8394 18.7995 18.9064 18.6968 18.9491C18.5749 18.9998 18.4147 18.9998 18.0944 18.9998H15.4056C15.0853 18.9998 14.9251 18.9998 14.8032 18.9491C14.7005 18.9064 14.6167 18.8394 14.5633 18.7572C14.5 18.6597 14.5 18.5316 14.5 18.2753V12.5243Z" fill="currentColor"/>
</svg>
